<svg width="20" height="20" viewBox="0 0 20 20" fill="none" xmlns="http://www.w3.org/2000/svg">
<path fill-rule="evenodd" clip-rule="evenodd" d="M6.52136 4.25C5.68981 4.25 5.02512 4.74696 4.56967 5.23155C4.09944 5.73187 3.73632 6.33997 3.503 6.82077C3.33125 7.17468 3.27451 7.54233 3.26647 7.86669C3.26462 7.94157 3.26222 8.01771 3.25984 8.09342C3.2538 8.28516 3.24784 8.47469 3.25086 8.63626C3.25531 8.87365 3.27814 9.13977 3.37734 9.40705C3.59023 9.98064 4.06527 10.3276 4.65784 10.656C5.28595 11.0041 5.70958 11.2138 6.05768 11.3293C6.43752 11.4554 6.70994 11.4629 6.97734 11.4633C6.98607 11.466 7.00658 11.4731 7.03762 11.4903C7.09705 11.5231 7.16399 11.5762 7.21985 11.6471C7.31628 11.7696 7.39901 11.9644 7.30299 12.2845C6.9923 13.3201 7.15401 14.7495 7.5772 15.784C7.78817 16.2997 8.11115 16.8362 8.58971 17.1553C8.84193 17.3234 9.14661 17.4362 9.49 17.4336C9.83233 17.4309 10.1522 17.3141 10.4374 17.124C11.8315 16.1946 12.3752 14.4091 12.6572 13.0976C12.7542 12.6468 12.8307 12.192 12.893 11.8222C12.9224 11.6476 12.9486 11.4919 12.9722 11.3644C12.9906 11.2656 13.0069 11.1857 13.0214 11.1219C13.1065 11.0782 13.1764 11.0309 13.2281 10.9933C13.384 10.8799 13.5288 10.7378 13.6541 10.6003C13.9072 10.3227 14.1564 9.97914 14.3545 9.68216C14.4884 9.48147 14.6286 9.20898 14.6807 8.90016C14.7353 8.576 14.6962 8.16059 14.3889 7.81128C14.0781 7.458 13.6105 7.25 13.0214 7.25C12.9324 7.25 12.7492 7.1932 12.4831 6.99C12.2343 6.79991 11.9962 6.54526 11.8155 6.31635C11.7966 6.29248 11.7714 6.24059 11.7714 6.15139C11.7714 5.10128 10.9201 4.25 9.86997 4.25H6.52136ZM4.85249 7.47565C5.04481 7.07933 5.32952 6.61332 5.6627 6.25882C6.01066 5.88859 6.30495 5.75 6.52136 5.75H9.86997C10.0917 5.75 10.2714 5.92971 10.2714 6.15139C10.2714 6.51681 10.3754 6.91304 10.6383 7.24596C10.8691 7.53827 11.1942 7.89305 11.5727 8.18207C11.9339 8.45799 12.4422 8.75 13.0214 8.75C13.0801 8.75 13.1252 8.75494 13.159 8.76132C13.1446 8.78946 13.127 8.81932 13.1067 8.84976C12.9274 9.11859 12.7258 9.39208 12.5454 9.58998C12.4683 9.67457 12.4083 9.73074 12.3669 9.76401C12.1043 9.81271 11.9322 9.97769 11.846 10.0873C11.7469 10.2133 11.6902 10.3497 11.657 10.4413C11.5882 10.6315 11.5387 10.8682 11.4975 11.0905C11.4653 11.2635 11.4353 11.443 11.4037 11.6311C11.3452 11.9806 11.2816 12.3599 11.1908 12.7822C10.9079 14.0974 10.4516 15.3118 9.60534 15.876C9.55947 15.9065 9.52673 15.9207 9.5073 15.9273C9.48868 15.9335 9.47849 15.9336 9.47849 15.9336C9.47849 15.9336 9.47462 15.9336 9.46821 15.9316C9.46098 15.9292 9.44545 15.923 9.42176 15.9072C9.30657 15.8304 9.12955 15.617 8.96552 15.216C8.63872 14.4172 8.55042 13.3465 8.73973 12.7155C8.98255 11.9061 8.78304 11.2076 8.3983 10.7191C8.05347 10.2812 7.51336 9.96327 7 9.96327C6.77476 9.96327 6.69012 9.95877 6.53023 9.9057C6.32786 9.83853 6.01217 9.69159 5.38489 9.34399C4.84215 9.04324 4.79603 8.91867 4.78361 8.88511C4.77036 8.84941 4.75379 8.77866 4.7506 8.60816C4.74831 8.48583 4.75243 8.35584 4.7578 8.1863C4.76044 8.10299 4.76338 8.01008 4.76601 7.90387C4.77058 7.7195 4.80207 7.57955 4.85249 7.47565ZM12.3227 9.79512C12.3227 9.79512 12.3266 9.79219 12.3341 9.78843C12.3264 9.79359 12.3227 9.79512 12.3227 9.79512Z" fill="white"/>
<path fill-rule="evenodd" clip-rule="evenodd" d="M14.8776 12.2956C15.2116 12.4177 15.4063 12.7524 15.3647 13.0908C15.4259 13.1915 15.5378 13.4086 15.5125 13.6938C15.4836 14.0189 15.2965 14.2518 15.1504 14.3979C15.0057 14.5426 14.9009 14.6935 14.8299 14.8207C14.7946 14.884 14.769 14.9391 14.7517 14.9812C14.7368 15.0177 14.7306 15.0386 14.7294 15.0426C14.6326 15.4454 14.2276 15.6936 13.8249 15.5969C13.4221 15.5002 13.174 15.0952 13.2707 14.6925C13.3332 14.4325 13.5283 13.9791 13.9046 13.5378C13.9007 13.5272 13.897 13.5164 13.8934 13.5054C13.8139 13.2631 13.8202 13.0037 13.9157 12.7425C14.0579 12.3534 14.4886 12.1534 14.8776 12.2956Z" fill="white"/>
<path fill-rule="evenodd" clip-rule="evenodd" d="M20 10C20 15.5228 15.5228 20 10 20C4.47715 20 0 15.5228 0 10C0 4.47715 4.47715 0 10 0C15.5228 0 20 4.47715 20 10ZM18.5 10C18.5 14.6944 14.6944 18.5 10 18.5C8.30265 18.5 6.7215 18.0025 5.39442 17.1453C5.70685 15.7933 5.37743 14.3369 4.71157 13.1867C4.03194 12.0128 2.90662 11.0047 1.53636 10.7915C1.5123 10.5309 1.5 10.2669 1.5 10C1.5 6.46008 3.66393 3.42558 6.74115 2.14712L6.72146 2.19636C7.3456 2.44601 8.21822 2.63373 9.04127 2.80884L9.14352 2.83059C9.96759 3.00579 10.7689 3.17616 11.4182 3.39082C11.9014 3.55056 12.4504 3.98663 13.1655 4.55923L13.189 4.57811C13.819 5.0826 14.6108 5.71671 15.433 5.94095L17.785 6.5824C18.2448 7.62822 18.5 8.7843 18.5 10ZM3.41343 13.9383C3.79213 14.5924 4.00414 15.3307 4.01239 16.0331C3.01884 15.047 2.26754 13.8172 1.85564 12.4408C2.44654 12.7033 3.00083 13.2256 3.41343 13.9383ZM16.6629 4.72157C15.1241 2.78183 12.7562 1.5296 10.0948 1.50052C10.7109 1.63541 11.3408 1.78539 11.8891 1.96664C12.6427 2.21579 13.3857 2.81239 13.9933 3.30033L14.103 3.38834C14.8111 3.95534 15.3568 4.36537 15.8277 4.4938L16.6629 4.72157Z" fill="white"/>
</svg>
